<svg width="355" height="3" viewBox="0 0 355 3" fill="none" xmlns="http://www.w3.org/2000/svg">
<path d="M355 0.494145C355 0.498068 352.247 0.505914 341.474 0.517683C340.876 0.517683 339.798 0.521607 339.08 0.521607C337.644 0.52553 328.188 0.51376 323.759 0.501991C322.083 0.498068 321.006 0.498068 320.767 0.501991C320.527 0.505914 319.211 0.505914 317.654 0.505914C315.38 0.501991 314.782 0.505914 314.064 0.517683C313.226 0.529453 311.191 0.537299 311.191 0.52553C311.191 0.521607 309.156 0.509837 308.797 0.51376C308.677 0.51376 308.797 0.521607 309.156 0.529453C309.635 0.541222 310.114 0.541222 315.141 0.549069C320.288 0.552992 328.308 0.580454 328.308 0.5883C328.308 0.592223 323.639 0.584377 321.245 0.572608C320.288 0.568685 318.373 0.564761 316.936 0.564761C314.423 0.564761 314.423 0.564761 314.183 0.584377C314.064 0.596147 313.704 0.603993 313.226 0.603993C312.747 0.603993 312.627 0.596147 312.747 0.580454C312.986 0.560838 312.867 0.556915 312.268 0.560838C311.909 0.560838 310.832 0.560838 309.994 0.552992C308.677 0.545146 308.318 0.545146 307.959 0.552992C307.48 0.560838 307.361 0.560838 306.882 0.549069C306.403 0.541222 306.044 0.537299 305.206 0.545146C304.607 0.549069 304.009 0.549069 303.889 0.549069C303.53 0.545146 305.206 0.533376 306.283 0.533376C306.882 0.533376 307.121 0.529453 307.121 0.521607C306.882 0.498068 304.248 0.490221 287.012 0.482375C281.386 0.478452 274.923 0.474529 272.888 0.474529C270.733 0.474529 266.903 0.470606 264.15 0.470606C261.397 0.470606 259.003 0.466682 258.763 0.470606C258.524 0.470606 256.489 0.470606 254.095 0.470606C251.701 0.470606 247.632 0.470606 244.998 0.470606C242.365 0.470606 238.774 0.470606 236.978 0.466682C235.303 0.466682 233.866 0.466682 233.866 0.466682C233.866 0.470606 231.353 0.470606 228.121 0.466682C222.016 0.462759 218.904 0.462759 214.834 0.462759C213.398 0.462759 209.687 0.462759 206.456 0.462759C203.224 0.462759 199.872 0.462759 198.915 0.462759C197.239 0.462759 194.366 0.462759 187.783 0.462759C183.354 0.462759 176.412 0.462759 175.095 0.466682C174.377 0.466682 172.701 0.466682 171.265 0.466682C169.828 0.466682 166.237 0.470606 163.125 0.474529C158.696 0.478452 155.225 0.478452 146.607 0.470606C132.722 0.458836 130.927 0.454913 130.448 0.462759C129.969 0.470606 125.899 0.474529 123.146 0.470606C122.069 0.470606 120.992 0.470606 120.872 0.470606C120.752 0.474529 119.675 0.470606 118.598 0.470606C117.401 0.466682 116.323 0.466682 115.845 0.470606C115.246 0.474529 115.007 0.474529 114.887 0.470606C114.767 0.466682 113.93 0.466682 111.895 0.470606C110.339 0.474529 107.945 0.478452 106.628 0.478452C105.311 0.478452 103.995 0.482375 103.636 0.482375C103.396 0.486298 102.439 0.486298 101.481 0.482375C100.523 0.478452 99.6855 0.478452 99.5658 0.482375C99.4462 0.486298 98.728 0.486298 97.8901 0.486298C95.1371 0.486298 92.0249 0.490221 91.7855 0.494145C91.6658 0.498068 90.5885 0.498068 89.3916 0.498068C86.8779 0.494145 85.4416 0.501991 86.7582 0.509837C87.237 0.51376 87.3567 0.517683 87.237 0.521607C86.7582 0.529453 94.8977 0.533376 97.531 0.52553C98.4886 0.521607 101.002 0.521607 103.276 0.52553C105.431 0.529453 107.466 0.529453 107.586 0.52553C107.705 0.521607 109.98 0.52553 112.733 0.52553C115.725 0.529453 117.76 0.529453 117.999 0.52553C118.239 0.521607 118.598 0.521607 119.196 0.52553C119.675 0.529453 120.752 0.529453 121.59 0.529453C122.428 0.529453 124.822 0.52553 126.737 0.529453C130.089 0.529453 130.208 0.529453 128.533 0.537299C127.575 0.541222 124.942 0.541222 122.787 0.541222C120.633 0.541222 117.52 0.541222 115.964 0.545146C114.408 0.549069 112.613 0.549069 112.134 0.549069C111.655 0.549069 111.057 0.552992 110.937 0.556915C110.698 0.564761 110.578 0.564761 110.219 0.556915C109.86 0.549069 109.261 0.549069 105.431 0.552992C101.361 0.556915 97.6507 0.568684 97.531 0.576531C97.531 0.576531 98.0098 0.580454 98.6083 0.576531C99.3265 0.576531 99.5659 0.576531 99.2068 0.580454C98.9674 0.584377 98.0098 0.584377 97.2916 0.5883C96.5734 0.5883 95.3764 0.592223 94.778 0.596147C94.1795 0.60007 93.581 0.60007 93.581 0.60007C93.3416 0.596147 89.631 0.603993 89.1522 0.607916C88.6734 0.611839 85.5613 0.615762 81.3719 0.619686C79.2173 0.619686 78.6188 0.623609 79.0976 0.631455C79.337 0.635378 79.0976 0.635378 78.4991 0.631455C77.1824 0.623609 76.9431 0.623609 73.8309 0.627532C72.3945 0.631455 71.1976 0.635378 71.1976 0.639301C71.1976 0.643224 70.9582 0.643224 70.5991 0.639301C70.0006 0.631455 65.4521 0.631455 64.7339 0.639301C64.3748 0.643224 67.2476 0.643224 69.4021 0.639301C70.1203 0.639301 70.24 0.639301 69.8809 0.643224C69.4021 0.647148 66.8885 0.651071 59.946 0.654994C58.1506 0.654994 55.2778 0.66284 53.7218 0.666763C52.1657 0.670687 50.1308 0.67461 49.293 0.670686C48.4551 0.666763 47.8566 0.666763 47.8566 0.670686C47.9763 0.682456 47.4975 0.690302 46.4202 0.686379C45.702 0.686379 45.1035 0.686379 45.1035 0.690302C45.1035 0.698149 47.2581 0.698149 50.6096 0.694225C51.3278 0.694225 52.7642 0.690302 53.9612 0.690302C64.9733 0.67461 67.0082 0.670687 67.0082 0.66284C67.0082 0.658917 68.2051 0.658917 69.5218 0.654994C71.1976 0.654994 72.0355 0.651071 72.0355 0.647148C72.0355 0.639301 72.8733 0.635378 73.3521 0.647148C73.5915 0.651071 74.0703 0.651071 74.9082 0.647148C75.6264 0.643224 76.1052 0.643224 76.1052 0.643224C76.1052 0.647148 76.3446 0.643224 76.584 0.639301C77.0627 0.631455 77.3021 0.631455 78.14 0.639301C78.9779 0.647148 79.337 0.647148 79.9355 0.643224C80.2946 0.639301 80.8931 0.639301 81.0128 0.643224C81.2522 0.647148 81.0128 0.651071 80.6537 0.651071C80.0552 0.654994 80.0552 0.654994 80.8931 0.654994C81.3718 0.654994 83.4067 0.651071 85.3219 0.647148C87.237 0.643224 89.5113 0.639301 90.4688 0.635378C92.2643 0.627532 92.5037 0.627532 92.2643 0.631455C92.1446 0.635378 92.384 0.635378 92.6234 0.639301C92.8628 0.639301 93.1022 0.639301 93.1022 0.635378C93.1022 0.627532 95.3764 0.603993 95.9749 0.607916C96.4537 0.611839 96.334 0.611839 95.7355 0.611839C94.778 0.611839 94.6583 0.615762 95.2567 0.627532C95.4961 0.631455 96.2143 0.635378 97.1719 0.635378C98.4886 0.635378 98.728 0.635378 98.6083 0.647148C98.6083 0.651071 98.1295 0.658917 97.7704 0.654994C96.5734 0.654994 88.0749 0.66284 86.2794 0.666763C85.4416 0.666763 84.0052 0.670686 82.9279 0.670686C78.8582 0.67461 72.993 0.682456 71.9158 0.686379C71.3173 0.690302 70.24 0.690302 69.5218 0.690302C68.8036 0.690302 67.8461 0.690302 67.487 0.690302C67.1279 0.694225 65.9309 0.694225 64.8536 0.698149C60.3051 0.702072 57.6718 0.705995 56.2354 0.709918C55.3975 0.713841 54.5596 0.713841 54.3202 0.713841C54.0809 0.713841 53.1233 0.717764 52.1657 0.717764C51.2081 0.721688 49.6521 0.725611 48.9339 0.721688C48.2157 0.721688 47.1384 0.721688 46.7793 0.725611C46.1808 0.729534 46.7793 0.729534 49.0536 0.729534C50.7293 0.729534 51.9263 0.729534 51.8066 0.733457C51.4475 0.73738 42.8293 0.74915 40.196 0.74915C35.2884 0.753073 23.4383 0.784458 22.8398 0.796228C22.7201 0.800151 21.8823 0.800151 20.9247 0.804074C19.4883 0.804074 19.2489 0.807997 19.7277 0.815843C20.3262 0.815843 20.4459 0.815843 19.7277 0.815843C19.2489 0.815843 18.8898 0.81192 18.8898 0.807997C18.8898 0.804074 18.5307 0.804074 18.0519 0.804074C17.5731 0.804074 17.0944 0.804074 16.855 0.800151C16.6156 0.796228 14.3413 0.788381 10.8701 0.784458C7.99736 0.780535 5.48371 0.776612 5.60341 0.776612C5.72311 0.776612 5.60341 0.772689 5.24432 0.764842C4.88523 0.756996 4.88523 0.756996 5.60341 0.753073C7.15948 0.74915 6.56099 0.73738 4.76553 0.733457C3.80795 0.733457 2.85037 0.729534 2.73067 0.725611C2.61098 0.721688 2.85037 0.721688 3.44886 0.721688C3.92765 0.721688 4.52613 0.717764 4.76553 0.709918C4.76553 0.705995 5.60341 0.698149 6.44129 0.698149C8.11706 0.694225 8.83524 0.686379 8.35645 0.670686C8.11706 0.66284 8.35645 0.658917 9.07464 0.66284C9.55342 0.666763 10.9898 0.66284 12.3065 0.66284C13.5034 0.658917 14.5807 0.658917 14.7004 0.658917C15.0595 0.66284 13.264 0.678533 12.7853 0.67461C12.5459 0.67461 12.0671 0.67461 11.708 0.67461C11.1095 0.678533 11.1095 0.682456 11.5883 0.686379C11.9474 0.698149 11.8277 0.698149 11.1095 0.705995C10.0322 0.713841 9.79282 0.721688 10.511 0.733457C10.7504 0.741303 11.5883 0.741303 13.8625 0.733457C17.4535 0.725611 17.4535 0.725611 16.7353 0.713841C16.2565 0.705995 16.2565 0.705995 16.855 0.705995C17.3338 0.705995 17.8125 0.709918 18.0519 0.717764C18.411 0.725611 18.7701 0.729534 21.7626 0.721688C25.952 0.713841 30.3808 0.705995 31.3383 0.705995C34.0914 0.705995 37.802 0.694225 38.8793 0.686379C39.5975 0.678533 40.3157 0.67461 40.555 0.67461C40.7944 0.67461 41.0338 0.67461 41.0338 0.670686C41.0338 0.666763 40.6747 0.666763 40.3157 0.666763C39.9566 0.666763 39.1187 0.666763 38.6399 0.66284C37.9217 0.658917 37.5626 0.658917 37.3232 0.658917C36.9641 0.666763 34.5702 0.66284 34.5702 0.654994C34.5702 0.651071 35.4081 0.647148 36.3656 0.643224C38.1611 0.635378 38.7596 0.627532 37.5626 0.623609C36.7247 0.623609 34.4505 0.596147 34.9293 0.592223C35.049 0.592223 35.8868 0.592223 36.7247 0.596147C37.802 0.603993 38.5202 0.603993 39.2384 0.60007C39.8369 0.596147 40.3157 0.596147 40.555 0.60007C40.9141 0.603993 45.9414 0.592223 46.7793 0.584377C47.0187 0.580454 48.096 0.580454 49.0536 0.580454C50.0111 0.580454 52.046 0.576531 53.6021 0.576531C55.1581 0.572608 57.5521 0.572608 58.8687 0.572608C60.3051 0.572608 61.8612 0.572608 62.4597 0.568684C63.0582 0.564761 64.8536 0.560838 66.5294 0.560838C70.1203 0.552992 70.7188 0.549069 68.4445 0.549069C67.2476 0.549069 66.8885 0.545146 66.8885 0.537299C66.8885 0.529453 67.1279 0.52553 67.487 0.52553C67.7264 0.52553 67.9657 0.529453 67.9657 0.533376C67.9657 0.537299 68.5642 0.541222 70.24 0.541222C72.993 0.541222 73.2324 0.533376 70.5991 0.529453C69.1627 0.52553 68.9233 0.52553 69.7612 0.521607C71.437 0.51376 69.6415 0.51376 66.29 0.521607C64.6142 0.52553 61.3824 0.529453 59.3475 0.533376C57.3127 0.537299 53.8415 0.541222 51.9263 0.541222C50.0111 0.545146 46.899 0.549069 45.2232 0.552992C42.5899 0.560838 38.5202 0.568684 28.9444 0.580454C28.3459 0.580454 27.3883 0.5883 26.6701 0.596147C25.952 0.603993 24.6353 0.607916 23.6777 0.611839C22.7201 0.611839 21.1641 0.619686 20.0868 0.623609C18.411 0.631455 18.411 0.635378 19.2489 0.639301C19.8474 0.643224 20.6853 0.643224 21.1641 0.643224C21.7626 0.643224 22.9595 0.647148 23.9171 0.651071L25.7126 0.658917H23.3186C22.002 0.658917 20.805 0.658917 20.6853 0.66284C20.4459 0.666763 19.7277 0.666763 17.2141 0.658917C16.9747 0.658917 16.855 0.651071 17.0944 0.643224C17.3338 0.635378 17.0944 0.627532 16.7353 0.623609C16.3762 0.619686 16.1368 0.615762 16.1368 0.607916C16.1368 0.596147 16.1368 0.596147 15.5383 0.607916C15.1792 0.611839 15.1792 0.619686 15.2989 0.623609C15.5383 0.627532 15.1792 0.627532 14.1019 0.627532C13.264 0.623609 12.5459 0.623609 12.5459 0.627532C12.5459 0.631455 11.8277 0.635378 10.9898 0.635378C10.1519 0.639301 9.43373 0.647148 9.19433 0.651071C8.83524 0.658917 5.12462 0.658917 5.36402 0.647148C5.48371 0.643224 6.3216 0.639301 7.27917 0.635378C9.31403 0.631455 9.79282 0.627532 9.07464 0.619686C8.47615 0.611839 7.75796 0.607916 5.36402 0.603993C3.56856 0.596147 2.13219 0.584377 3.56856 0.584377C4.88523 0.584377 4.88523 0.564761 3.56856 0.549069L2.37158 0.533376L4.16704 0.537299C5.12462 0.537299 6.0822 0.541222 6.2019 0.545146C6.3216 0.549069 7.27917 0.552992 8.47615 0.552992C9.91252 0.552992 10.511 0.556915 10.511 0.564761C10.511 0.568685 10.9898 0.572608 11.5883 0.572608C12.1868 0.572608 12.4262 0.572608 12.0671 0.568684C11.708 0.564761 11.4686 0.560838 11.4686 0.560838C11.4686 0.552992 13.3837 0.537299 13.9822 0.541222C14.3413 0.541222 14.9398 0.541222 15.5383 0.541222C16.0171 0.537299 17.3338 0.537299 18.411 0.541222C20.805 0.545146 21.1641 0.537299 19.4883 0.51376L18.1716 0.494145L17.6928 0.509837C17.4535 0.517683 16.855 0.52553 16.2565 0.52553C15.7777 0.52553 15.1792 0.529453 15.0595 0.533376C14.8201 0.537299 14.7004 0.537299 14.1019 0.533376C13.6231 0.52553 13.6231 0.52553 14.1019 0.521607C14.461 0.521607 14.7004 0.517683 14.7004 0.51376C14.7004 0.509837 14.3413 0.509837 13.9822 0.509837C13.3837 0.509837 13.264 0.505914 13.264 0.494145C13.3837 0.474529 14.5807 0.470606 15.658 0.490221C16.2565 0.498068 16.2565 0.498068 16.0171 0.490221C15.8974 0.482375 16.0171 0.478452 16.7353 0.482375C17.2141 0.482375 18.0519 0.478452 18.5307 0.474529C19.2489 0.466682 19.3686 0.466682 19.3686 0.474529C19.3686 0.486298 20.3262 0.490221 21.8823 0.486298C22.9595 0.482375 23.1989 0.478452 23.0792 0.466682C22.9595 0.458836 23.0792 0.454913 23.4383 0.454913C23.7974 0.454913 23.9171 0.458836 23.9171 0.466682C23.9171 0.478452 23.9171 0.478452 29.7823 0.466682C32.0565 0.462759 34.5702 0.458836 35.4081 0.454913C37.0838 0.45099 38.8793 0.443144 40.7944 0.431374C41.5126 0.427451 43.0687 0.419605 44.3854 0.419605C45.702 0.415681 47.4975 0.415681 48.4551 0.411758C49.4127 0.411758 51.8066 0.403912 53.6021 0.403912C55.3975 0.399989 58.5097 0.396066 60.4248 0.396066C62.34 0.396066 65.093 0.392143 66.5294 0.388219C69.2824 0.384296 70.4794 0.384296 70.0006 0.396066C69.7612 0.399989 69.8809 0.399989 70.1203 0.399989C70.3597 0.396066 71.0779 0.399989 71.6764 0.407835C72.2749 0.411758 72.993 0.415681 73.3521 0.415681C73.5915 0.415681 75.1476 0.411758 76.7037 0.415681C78.3794 0.415681 84.3643 0.411758 90.1098 0.403912C95.8552 0.396066 102.199 0.392143 104.354 0.388219C106.389 0.388219 109.261 0.384296 110.458 0.384296C117.88 0.37645 128.293 0.368604 132.363 0.368604C134.158 0.368604 139.664 0.368604 144.452 0.36468C157.26 0.360757 161.33 0.360757 167.434 0.360757C170.427 0.360757 173.419 0.360757 174.018 0.360757C176.531 0.356834 178.327 0.356834 181.678 0.360757C183.593 0.36468 188.501 0.36468 192.571 0.36468C202.146 0.36468 203.104 0.36468 208.49 0.36468C211.004 0.36468 213.518 0.36468 214.116 0.360757C214.834 0.356834 215.553 0.356834 216.031 0.36468C216.51 0.368604 217.587 0.368604 218.784 0.368604C219.742 0.368604 221.897 0.368604 223.572 0.368604C225.128 0.368604 227.283 0.368604 228.36 0.36468C229.677 0.360757 230.754 0.360757 232.071 0.36468C233.148 0.368604 234.106 0.372527 234.106 0.372527C234.106 0.372527 236.021 0.372527 238.056 0.372527C240.091 0.372527 242.724 0.372527 243.682 0.372527C244.639 0.372527 247.512 0.372527 250.025 0.372527C252.539 0.372527 254.813 0.372527 254.933 0.372527C255.292 0.368604 261.397 0.372527 267.262 0.37645C268.698 0.37645 270.015 0.37645 270.374 0.37645C270.733 0.37645 274.204 0.37645 278.274 0.380373C282.224 0.384296 287.132 0.384296 289.047 0.384296C290.962 0.384296 293.954 0.384296 295.51 0.384296C297.067 0.384296 298.862 0.384296 299.341 0.380373C299.82 0.37645 301.854 0.380373 303.77 0.384296C309.156 0.396066 310.832 0.388219 308.318 0.36468C307.001 0.352911 307.001 0.352911 307.361 0.368604L307.6 0.384296L307.001 0.368604C306.642 0.356834 306.044 0.352911 304.847 0.352911C304.009 0.352911 301.615 0.348988 299.341 0.345065C295.989 0.313679 279.471 0.305833 268.1 0.305833C265.347 0.305833 261.038 0.305833 258.524 0.30191C251.103 0.297987 234.465 0.294064 231.353 0.297987C229.797 0.297987 226.924 0.297987 225.009 0.294064C223.094 0.29014 221.418 0.29014 221.178 0.294064C221.059 0.294064 218.186 0.297987 214.834 0.297987C200.71 0.297987 197 0.297987 185.987 0.294064C179.524 0.294064 172.821 0.294064 171.025 0.294064C169.23 0.294064 167.195 0.294064 166.477 0.294064C163.604 0.294064 157.858 0.294064 154.986 0.297987C150.557 0.30191 143.016 0.30191 136.672 0.30191C133.68 0.30191 129.251 0.30191 127.096 0.305833C125.061 0.305833 121.949 0.305833 120.393 0.305833C118.837 0.305833 116.683 0.305833 115.605 0.309756C114.528 0.309756 112.733 0.313679 111.775 0.309756C110.817 0.309756 109.74 0.309756 109.501 0.313679C109.261 0.317603 107.945 0.317603 106.748 0.317603C103.636 0.317603 101.481 0.321526 97.4113 0.325449C95.3764 0.329372 92.6234 0.333295 91.0673 0.333295C89.5113 0.333295 87.237 0.337218 85.8007 0.341142C84.484 0.345065 82.9279 0.345065 82.3294 0.345065C81.8506 0.345065 78.8582 0.348988 75.8658 0.352911C65.8112 0.372527 58.6293 0.380373 54.799 0.384296C52.7642 0.384296 49.1733 0.388219 47.0187 0.392143C44.8642 0.396066 42.4702 0.399989 41.8717 0.396066C41.2732 0.396066 40.555 0.396066 40.4353 0.399989C40.3157 0.403912 39.1187 0.403912 37.802 0.407835C36.4853 0.407835 35.2884 0.411758 35.1687 0.415681C34.8096 0.423528 33.1338 0.423528 32.7747 0.415681C32.4156 0.407835 33.1338 0.399989 34.2111 0.396066C34.6899 0.396066 35.1687 0.388219 35.1687 0.384296C35.1687 0.37645 36.0065 0.372527 36.2459 0.380373C36.4853 0.388219 39.4778 0.384296 39.4778 0.37645C39.4778 0.372527 39.5975 0.36468 39.5975 0.360757C39.7172 0.356834 40.555 0.352911 41.8717 0.348988C43.4278 0.348988 44.6248 0.341142 45.9414 0.329372C48.3354 0.305833 50.0111 0.305833 48.2157 0.329372C47.4975 0.337218 46.6596 0.345065 46.3005 0.345065C45.9414 0.345065 45.702 0.348988 45.702 0.348988C45.702 0.356834 52.1657 0.356834 53.0036 0.348988C53.3627 0.345065 54.5596 0.345065 55.8763 0.345065C57.193 0.345065 58.2703 0.341142 58.5097 0.341142C58.7491 0.345065 59.5869 0.345065 60.3051 0.345065C66.6491 0.341142 68.0854 0.337218 68.0854 0.329372C68.0854 0.325449 68.5642 0.317603 69.043 0.317603C70.5991 0.309756 70.8385 0.313679 69.7612 0.325449C68.8036 0.337218 68.8036 0.337218 70.0006 0.333295C70.7188 0.333295 72.1552 0.329372 73.1127 0.333295C74.19 0.333295 75.0279 0.333295 75.0279 0.329372C75.0279 0.325449 75.7461 0.325449 76.4643 0.329372C77.4218 0.333295 78.4991 0.333295 79.5764 0.325449C80.534 0.321526 82.2097 0.317603 83.287 0.321526C84.3643 0.325449 85.4416 0.321526 85.5613 0.317603C86.1597 0.309756 110.339 0.282294 120.633 0.278371C123.864 0.278371 127.934 0.274448 129.73 0.274448C134.158 0.270525 148.043 0.266602 151.993 0.266602C153.549 0.266602 155.225 0.266602 155.824 0.266602C156.422 0.266602 160.731 0.266602 165.399 0.266602C170.187 0.266602 174.975 0.266602 176.052 0.266602C177.968 0.266602 179.284 0.266602 187.663 0.266602C189.578 0.266602 191.853 0.266602 192.69 0.266602C194.366 0.266602 215.313 0.266602 219.622 0.266602C220.939 0.266602 225.847 0.266602 230.275 0.266602C241.766 0.266602 243.083 0.266602 251.222 0.270525C255.292 0.270525 262.594 0.274448 267.501 0.274448C272.409 0.274448 279.471 0.278371 283.182 0.278371C286.892 0.278371 292.877 0.282294 296.348 0.282294C299.82 0.282294 303.051 0.282294 303.65 0.282294C304.368 0.278371 304.488 0.278371 304.248 0.286217C303.889 0.29014 304.368 0.294064 306.283 0.294064C307.6 0.294064 309.156 0.294064 309.754 0.294064C312.627 0.297987 313.824 0.297987 314.901 0.29014C315.979 0.282294 316.218 0.282294 317.056 0.297987C317.894 0.309756 318.133 0.309756 318.851 0.305833C319.33 0.30191 320.527 0.30191 321.605 0.30191C322.682 0.30191 323.759 0.30191 323.879 0.297987C323.998 0.294064 325.914 0.294064 329.624 0.297987C334.292 0.30191 335.37 0.305833 337.165 0.321526C338.242 0.329372 339.798 0.337218 340.397 0.337218C341.594 0.341142 337.045 0.341142 331.3 0.341142C328.068 0.341142 327.709 0.341141 327.829 0.352911C327.948 0.360757 327.709 0.36468 327.23 0.36468C326.751 0.36468 326.392 0.360757 326.392 0.356834C326.392 0.352911 324.477 0.348988 322.083 0.345065C318.612 0.341142 317.535 0.341142 317.056 0.348988C316.338 0.356834 316.338 0.356834 315.739 0.348988C314.901 0.333295 313.226 0.333295 312.148 0.345065C310.712 0.360757 311.789 0.372527 313.944 0.36468C314.901 0.360757 318.971 0.36468 323.161 0.368604C327.35 0.372527 331.061 0.37645 331.539 0.37645C333.694 0.37645 340.397 0.403912 340.756 0.407835C340.995 0.411758 341.355 0.415681 341.714 0.411758C341.953 0.411758 342.192 0.411758 341.953 0.415681C341.833 0.419605 341.355 0.423528 340.995 0.423528C340.636 0.423528 339.439 0.427451 338.242 0.431374C337.165 0.435297 335.489 0.43922 334.532 0.43922C331.3 0.443144 332.377 0.447067 336.567 0.454913C340.158 0.458836 349.733 0.474529 350.571 0.478452C350.691 0.478452 351.17 0.478452 351.768 0.478452C352.247 0.478452 353.205 0.482375 353.923 0.482375C354.521 0.486298 355 0.490221 355 0.494145ZM18.2913 0.552992C18.2913 0.549069 18.0519 0.545146 17.8125 0.545146C17.5731 0.545146 17.3338 0.545146 17.3338 0.549069C17.3338 0.552992 17.5731 0.556915 17.8125 0.556915C18.0519 0.560838 18.2913 0.556915 18.2913 0.552992ZM85.681 0.498068C84.9628 0.490221 78.9779 0.501991 78.0203 0.509837C76.943 0.521607 76.1052 0.521607 76.1052 0.509837C76.1052 0.505914 75.7461 0.501991 75.0279 0.501991C74.3097 0.501991 73.9506 0.505914 74.0703 0.517683C74.19 0.529453 74.5491 0.529453 76.7037 0.533376C78.14 0.533376 80.534 0.533376 82.3294 0.533376C84.1249 0.533376 85.5613 0.529453 85.8007 0.529453C86.2794 0.533376 86.1597 0.501991 85.681 0.498068ZM231.951 0.443144C231.951 0.43922 231.712 0.43922 231.472 0.43922C231.233 0.43922 230.994 0.443144 230.994 0.443144C230.994 0.443144 231.233 0.447067 231.472 0.447067C231.712 0.447067 231.951 0.447067 231.951 0.443144ZM240.45 0.411758C239.851 0.411758 239.731 0.411758 240.091 0.415681C240.45 0.419605 240.928 0.419605 241.048 0.415681C241.288 0.415681 240.928 0.411758 240.45 0.411758ZM292.039 0.427451C291.8 0.423528 291.321 0.427451 290.842 0.435297C290.124 0.447067 290.124 0.447067 291.082 0.43922C291.68 0.435297 292.159 0.431374 292.279 0.431374C292.398 0.431374 292.279 0.427451 292.039 0.427451Z" fill="#ED1C1F"/>
<path d="M349.135 1.38386C349.135 1.38779 348.895 1.38779 348.656 1.38386C348.417 1.37994 347.698 1.37994 347.22 1.38386C346.382 1.38779 346.382 1.38779 347.1 1.39171C348.177 1.39171 347.698 1.41525 346.741 1.41525C346.382 1.41525 345.544 1.41917 344.945 1.42702C344.347 1.43487 343.629 1.43879 343.15 1.43879C342.312 1.43879 341.714 1.4584 342.312 1.47017C342.671 1.47802 342.671 1.47802 342.551 1.47017C342.312 1.4584 343.27 1.45448 345.783 1.4584C346.741 1.4584 347.22 1.46233 346.741 1.46233C345.664 1.46625 345.664 1.48979 346.741 1.48979C347.938 1.48979 347.339 1.50156 345.664 1.51725C344.826 1.5251 343.748 1.52902 343.389 1.52902C343.03 1.52902 342.551 1.52902 342.192 1.53687C341.833 1.54079 340.995 1.54471 340.277 1.54471C339.559 1.54471 338.601 1.54864 338.003 1.55256C337.404 1.55648 335.968 1.56433 334.771 1.56825C333.574 1.57218 332.257 1.5761 331.779 1.58002C331.3 1.58395 330.103 1.59179 329.026 1.59571C327.948 1.59964 327.11 1.60748 327.11 1.61141C327.11 1.61925 328.547 1.63102 329.624 1.6271C330.223 1.6271 330.821 1.63102 331.3 1.64279C331.898 1.65456 332.257 1.65849 332.856 1.65456C333.215 1.65064 334.532 1.65064 335.729 1.65064C336.926 1.65064 338.362 1.65064 339.08 1.65064C340.038 1.65064 340.277 1.65064 340.157 1.66241C340.157 1.67025 339.798 1.6781 339.32 1.6781C338.841 1.6781 338.601 1.68202 338.841 1.68595C338.96 1.68987 339.439 1.68987 339.918 1.68987C340.756 1.68595 342.073 1.69379 342.073 1.70164C342.073 1.70556 340.876 1.70949 339.439 1.70949C337.883 1.71341 336.447 1.72126 335.848 1.72518C335.37 1.73303 334.651 1.73695 334.412 1.73695C334.173 1.73695 333.694 1.74087 333.574 1.74479C333.335 1.75264 333.095 1.75264 332.856 1.74872C332.377 1.73695 329.504 1.74479 329.504 1.75656C329.504 1.76049 328.906 1.76833 328.068 1.77226C326.153 1.7801 325.794 1.80364 327.589 1.79972C330.941 1.79187 336.686 1.78795 337.404 1.79187C338.123 1.7958 338.003 1.79972 336.926 1.80757C336.207 1.81149 335.489 1.81933 335.25 1.81933C333.813 1.81933 327.829 1.83503 327.829 1.84287C327.829 1.8468 326.991 1.85072 326.033 1.85072C325.076 1.85072 324.238 1.85464 324.357 1.85857C324.716 1.88603 315.739 1.92526 306.762 1.93311C306.044 1.93311 304.847 1.93703 304.009 1.93703C303.171 1.94095 301.495 1.94095 300.179 1.94488C298.862 1.94488 295.271 1.95272 292.039 1.95665C283.181 1.96841 259.481 1.99588 253.377 1.9998C250.384 2.00372 246.793 2.00372 245.237 2.00765C243.681 2.00765 242.245 2.01157 242.125 2.01157C241.886 2.01157 240.09 2.01157 238.056 2.01549C234.465 2.01942 233.028 2.01942 226.206 2.01942C224.53 2.01942 222.016 2.01942 220.58 2.02334C219.143 2.02334 216.749 2.02726 215.313 2.02726C213.877 2.02726 211.722 2.02726 210.645 2.02726C206.815 2.02726 204.062 2.02726 201.548 2.02726C200.111 2.02726 195.802 2.02726 191.852 2.02726C187.902 2.02726 183.593 2.02726 182.277 2.02726C180.84 2.02726 178.805 2.02726 177.728 2.02726C172.461 2.02726 169.23 2.02726 165.04 2.02726C162.527 2.02726 158.936 2.02726 156.901 2.02726C154.986 2.02726 152.352 2.02726 151.036 2.02726C149.839 2.02726 142.657 2.02726 135.116 2.02334C127.575 2.01942 118.717 2.01942 115.366 2.01942C112.014 2.01942 107.825 2.01942 106.029 2.01942C104.234 2.01942 102.199 2.01942 101.481 2.01942C100.763 2.01942 97.2914 2.01942 93.8202 2.01942C90.349 2.01942 85.5611 2.01942 83.1671 2.01942C80.7732 2.01942 75.5065 2.01942 71.5565 2.01942C67.4868 2.01942 63.5368 2.01942 62.6989 2.01942C49.0534 2.01157 38.52 2.00372 31.0988 1.98803C18.6502 1.96057 18.8896 1.96057 19.8472 1.9488C20.326 1.94095 20.326 1.94095 19.7275 1.94095C19.2487 1.94095 18.7699 1.94488 18.5305 1.95272C18.2911 1.96057 17.8124 1.96449 16.9745 1.96057C16.2563 1.95665 15.6578 1.96057 15.5381 1.96449C15.4184 1.96841 15.179 1.96841 14.9396 1.96449C14.3411 1.95272 15.7775 1.94488 16.7351 1.9488C17.2139 1.95272 17.4533 1.9488 17.3336 1.94488C16.9745 1.93311 15.5381 1.92918 14.7002 1.93703C13.8623 1.94488 12.0669 1.94488 11.7078 1.93311C11.3487 1.92134 12.7851 1.90957 15.6578 1.90172C17.4533 1.8978 17.6927 1.89387 16.6154 1.89387C15.8972 1.89387 14.5805 1.89387 13.8623 1.8978C12.0669 1.90172 11.229 1.89387 12.7851 1.88603C14.3411 1.87818 19.4881 1.87034 19.9669 1.87426C20.2063 1.87426 20.0866 1.88211 19.7275 1.88603C18.8896 1.8978 19.9669 1.8978 22.7199 1.88995C25.3533 1.88211 25.3533 1.88211 24.9942 1.89387C24.7548 1.90172 25.473 1.90172 29.5427 1.90564C32.6548 1.90957 34.4503 1.91349 34.57 1.91741C34.6897 1.92134 34.9291 1.91741 35.1685 1.91349C35.767 1.8978 35.2882 1.89387 32.0563 1.89387C30.5003 1.89387 29.3033 1.88995 29.5427 1.88603C30.0215 1.88211 30.1412 1.88211 35.2882 1.88603C37.6821 1.88995 39.4776 1.88603 39.4776 1.88211C39.4776 1.87426 38.4003 1.87034 29.423 1.85072C22.6002 1.83503 21.523 1.83503 19.2487 1.83895C17.2139 1.84287 16.376 1.84287 15.6578 1.83895C14.9396 1.83503 14.3411 1.8311 13.6229 1.83503C12.0669 1.84287 11.5881 1.83895 11.1093 1.82326C10.7502 1.81541 10.2714 1.81149 9.55323 1.80757C8.95474 1.80757 8.59565 1.80364 8.83505 1.79972C9.07444 1.7958 9.79262 1.7958 10.6305 1.79972C11.7078 1.80364 12.0669 1.80364 12.0669 1.7958C12.0669 1.78403 13.982 1.77226 17.573 1.76833C20.6851 1.76441 21.8821 1.76441 22.3609 1.77226C22.7199 1.77618 27.7472 1.78403 28.226 1.7801C28.4654 1.7801 27.7472 1.77226 26.67 1.76833C25.5927 1.76441 24.276 1.76049 23.7972 1.75656C22.4805 1.74872 20.0866 1.74087 19.7275 1.74872C19.6078 1.75264 19.129 1.75264 18.6502 1.75264C17.932 1.75264 18.0517 1.74872 19.0093 1.74087L20.2063 1.73303L17.8124 1.7291C12.1866 1.72126 10.9896 1.72126 11.1093 1.70949C11.1093 1.70556 11.3487 1.70164 11.5881 1.70164C11.8275 1.70164 11.9472 1.69772 11.8275 1.69379C11.7078 1.68987 11.8275 1.68595 12.1866 1.68595C12.5457 1.68595 12.7851 1.68987 12.7851 1.69379C12.7851 1.69772 13.5032 1.70164 14.9396 1.70556C16.1366 1.70556 17.0942 1.70556 16.9745 1.70556C16.7351 1.70164 20.8048 1.68595 22.6002 1.68595C25.3533 1.68595 27.3881 1.69379 27.2684 1.70556C27.1487 1.71341 27.5078 1.71733 28.4654 1.71733C29.423 1.72126 29.9018 1.71733 29.9018 1.71341C29.9018 1.70949 29.5427 1.70556 28.8245 1.70164C28.226 1.70164 27.8669 1.69772 27.9866 1.69772C28.1063 1.69772 30.1412 1.69772 32.5351 1.70164C41.3927 1.71341 52.2852 1.72518 54.2004 1.72126C55.2776 1.71733 59.3474 1.72126 63.1777 1.72126C67.008 1.72518 70.8383 1.72518 71.6762 1.72518C72.5141 1.72518 74.4292 1.72518 75.9853 1.72518C77.5414 1.72518 79.0974 1.72518 79.5762 1.72126C80.6535 1.71733 84.3641 1.71733 89.3914 1.72126C91.6656 1.72126 93.7005 1.72126 94.0596 1.72126C94.7778 1.71733 102.438 1.71341 107.346 1.71733C109.381 1.71733 112.493 1.71733 114.169 1.71733C115.845 1.71733 117.64 1.71733 118.238 1.71733C118.837 1.71733 120.752 1.71733 122.548 1.71733C128.772 1.71733 130.926 1.71733 135.595 1.71733C138.228 1.71733 141.34 1.71733 142.657 1.71733C143.973 1.71733 147.445 1.71733 150.317 1.72126C153.31 1.72126 155.943 1.72518 156.422 1.72126C156.781 1.72126 158.936 1.72126 160.97 1.72126C168.751 1.72518 171.264 1.72518 171.624 1.72126C171.743 1.72126 174.137 1.72126 176.651 1.72126C179.284 1.72126 183.114 1.72126 185.269 1.72126C187.424 1.72126 190.655 1.72126 192.69 1.72126C194.605 1.72126 197.239 1.72126 198.555 1.72126C199.752 1.72126 202.027 1.72126 203.583 1.72126C209.687 1.72126 212.799 1.72126 219.502 1.72126C221.418 1.72126 223.692 1.72126 224.53 1.72126C225.368 1.72126 226.804 1.72126 227.522 1.72126C228.36 1.72126 231.472 1.72126 234.345 1.72126C241.407 1.72126 250.265 1.71733 253.377 1.71341C254.813 1.71341 257.327 1.70949 259.003 1.70949C260.678 1.70949 262.713 1.70949 263.431 1.70556C264.269 1.70164 264.987 1.70164 265.227 1.70164C265.825 1.70556 271.691 1.70164 273.486 1.69772C274.444 1.69772 277.795 1.68987 280.907 1.68987C284.019 1.68595 287.969 1.68202 289.765 1.6781C291.56 1.67418 294.672 1.67025 296.588 1.67025C302.932 1.66241 305.326 1.65849 305.924 1.65064C306.163 1.64672 307.001 1.64279 307.6 1.63887C308.438 1.63495 308.797 1.63495 308.916 1.64279C309.036 1.64672 309.635 1.65064 310.113 1.65064C310.951 1.65064 310.951 1.65064 310.113 1.64672C309.635 1.64279 309.276 1.63887 309.276 1.63887C309.276 1.63102 311.43 1.6271 311.909 1.63495C312.148 1.63887 312.866 1.64279 313.226 1.64279C313.704 1.64279 313.824 1.64279 313.465 1.63887C312.627 1.63495 313.226 1.62318 314.303 1.6271C314.782 1.6271 315.739 1.6271 316.457 1.62318C317.176 1.61925 318.492 1.61533 319.33 1.61533C322.682 1.60748 321.604 1.58395 318.013 1.58395C316.816 1.58395 315.5 1.58395 315.021 1.58787C312.627 1.59571 307.719 1.59964 306.642 1.59964C305.924 1.59964 304.966 1.59964 304.488 1.60356C304.009 1.60748 302.333 1.60748 300.897 1.60748C299.46 1.60748 296.588 1.61141 294.792 1.61533C292.997 1.61925 290.004 1.62318 288.328 1.62318C286.653 1.62318 284.139 1.62318 282.703 1.6271C281.266 1.6271 279.71 1.63102 279.112 1.63102C278.513 1.63102 277.436 1.63102 276.718 1.63495C275.88 1.63495 275.042 1.63495 274.683 1.63102C273.965 1.62318 271.331 1.63102 271.331 1.63887C271.331 1.64279 270.733 1.64279 270.015 1.63887C269.297 1.63495 268.459 1.63495 268.1 1.63887C267.142 1.64672 263.072 1.64672 261.995 1.63887C261.397 1.63495 260.918 1.63495 260.678 1.63495C260.439 1.63887 259.96 1.64279 259.362 1.64279C257.925 1.64672 249.187 1.65064 247.512 1.64672C246.793 1.64672 245.836 1.64672 245.597 1.64672C245.237 1.65064 243.562 1.65064 241.646 1.65064C239.731 1.65064 238.295 1.65064 238.295 1.65064C238.295 1.65456 236.859 1.65456 235.183 1.65064C233.507 1.65064 231.233 1.64672 230.275 1.64672C229.318 1.64672 227.403 1.64672 226.206 1.65064C225.009 1.65064 223.692 1.65456 223.452 1.65456C223.213 1.65456 221.657 1.65849 220.101 1.65456C218.545 1.65456 216.63 1.65456 215.792 1.65456C214.954 1.65456 212.56 1.65456 210.525 1.65456C208.49 1.65456 206.336 1.65456 205.977 1.65456C205.498 1.65456 203.702 1.65456 201.907 1.65456C197.478 1.65456 192.69 1.65456 188.74 1.65456C184.072 1.65849 182.995 1.65849 173.539 1.65849C165.519 1.65849 161.569 1.65849 152.592 1.66241C150.317 1.66241 145.889 1.66241 142.776 1.66241C135.834 1.66241 122.787 1.66241 117.76 1.66241C115.725 1.66241 112.972 1.66241 111.775 1.66241C110.578 1.66241 108.663 1.66241 107.466 1.66633C105.431 1.67025 104.114 1.67418 96.9323 1.67025C95.3763 1.67025 91.7853 1.67025 88.7929 1.67025C85.8005 1.67025 82.6883 1.67025 81.7308 1.67025C80.7732 1.67025 77.5414 1.67025 74.4292 1.67025C71.3171 1.67025 67.8459 1.67025 66.5292 1.67025C65.3322 1.67025 63.8959 1.67025 63.4171 1.67025C61.9807 1.67418 47.9761 1.6781 40.5549 1.6781C37.9215 1.6781 36.1261 1.6781 35.767 1.68595C35.2882 1.69379 33.7321 1.69379 28.7048 1.68595C25.1139 1.68202 22.0018 1.6781 21.6427 1.68202C21.4033 1.68202 21.1639 1.68202 21.1639 1.6781C21.1639 1.67418 20.2063 1.67025 19.129 1.66241C17.4533 1.65456 16.6154 1.65456 15.2987 1.65849C12.6654 1.66633 10.6305 1.66633 10.6305 1.65064C10.6305 1.64279 10.2714 1.63495 9.67293 1.6271C8.71535 1.61533 8.95474 1.60356 10.6305 1.58395C10.9896 1.58002 11.1093 1.57218 10.9896 1.56825C10.7502 1.56041 10.3911 1.56041 9.43353 1.56433C9.07444 1.56825 8.35626 1.56825 7.99716 1.56433C7.39868 1.56433 7.51837 1.56041 8.35626 1.55256C8.95474 1.54864 9.67293 1.54471 10.1517 1.54471C11.4684 1.54471 11.5881 1.53687 10.2714 1.50941C9.31384 1.48587 9.19414 1.48194 9.91232 1.48194C10.3911 1.48194 10.7502 1.4741 10.7502 1.47017C10.7502 1.46233 10.9896 1.46233 12.1866 1.47017C13.6229 1.48194 15.6578 1.4741 15.6578 1.45056C15.6578 1.43487 15.6578 1.43487 12.7851 1.43094C11.229 1.43094 9.91232 1.42702 9.91232 1.4231C9.91232 1.41917 10.2714 1.41917 10.7502 1.41917C11.7078 1.41917 11.8275 1.39956 10.9896 1.37602C10.5108 1.36425 10.5108 1.3564 10.7502 1.3564C10.9896 1.3564 11.5881 1.34463 11.9472 1.33286C12.6654 1.31325 12.6654 1.31325 10.6305 1.3054C9.43353 1.30148 8.71535 1.29363 8.59565 1.28579C8.35626 1.24655 8.47595 1.24263 9.43353 1.23871C10.1517 1.23478 10.3911 1.23086 10.1517 1.21909C10.032 1.21125 10.1517 1.19555 10.3911 1.18771C10.8699 1.17201 10.2714 1.15632 9.19414 1.15632C8.59565 1.15632 5.48352 1.13671 5.60322 1.13278C5.60322 1.12886 5.84261 1.12886 6.08201 1.12494C6.3214 1.12494 6.4411 1.11709 6.3214 1.11317C5.96231 1.1014 7.51837 1.10924 8.35626 1.12494L9.07444 1.14063L9.19414 1.12101C9.31384 1.10924 8.95474 1.09747 8.35626 1.09355L7.39868 1.0857L8.35626 1.08178C9.43353 1.07786 9.67293 1.07001 8.95474 1.06609C8.59565 1.06217 8.59565 1.05824 8.95474 1.05432C9.19414 1.0504 9.55323 1.04255 9.79262 1.03863C10.032 1.03078 9.79263 1.03078 8.83505 1.03078H7.51837L8.59565 1.01901C9.19414 1.01116 9.79262 0.999395 9.79262 0.995472C9.79262 0.983702 10.9896 0.96801 11.7078 0.971933C11.9472 0.971933 12.9048 0.971933 13.8623 0.975856H15.6578L13.8623 0.96801C12.9048 0.964087 11.8275 0.95624 11.3487 0.952317C10.9896 0.948394 10.1517 0.940548 9.55323 0.940548C8.95474 0.940548 9.19414 0.936625 10.2714 0.932701C11.229 0.928778 11.9472 0.924855 11.9472 0.920932C11.9472 0.917009 12.426 0.913086 13.0245 0.913086C13.7426 0.913086 14.1017 0.909163 14.1017 0.901316C14.1017 0.89347 13.8623 0.889547 13.3835 0.89347C12.5457 0.897393 12.3063 0.885624 13.1442 0.8817C13.8623 0.877777 13.8623 0.858161 13.0245 0.850315C12.6654 0.846392 12.3063 0.838546 12.1866 0.830699C11.8275 0.811084 14.2214 0.811084 14.9396 0.826776C15.4184 0.838546 15.7775 0.838546 20.2063 0.830699C21.4033 0.826776 22.6002 0.822853 22.9593 0.815007C23.3184 0.80716 23.9169 0.803237 24.1563 0.803237C24.5154 0.803237 25.2336 0.803237 25.8321 0.799314C26.7897 0.795391 26.7897 0.795391 25.7124 0.80716C25.1139 0.811084 24.6351 0.81893 24.8745 0.822853C25.3533 0.826776 29.423 0.822853 30.7397 0.815007C31.5776 0.811084 37.6821 0.80716 38.52 0.811084C38.7594 0.811084 39.2382 0.811084 39.5973 0.80716C40.0761 0.803237 40.4352 0.803237 40.914 0.811084C41.6321 0.822853 42.5897 0.822853 43.4276 0.815007C43.7867 0.811084 44.1458 0.80716 44.3852 0.811084C44.5049 0.811084 44.9837 0.811084 45.3428 0.80716C46.0609 0.799314 48.0958 0.795391 53.6019 0.787545C54.9185 0.787545 56.2352 0.787545 57.0731 0.791468C57.7913 0.795391 58.3898 0.795391 58.6292 0.791468C58.7489 0.787545 60.0655 0.787545 61.3822 0.787545C62.9383 0.787545 64.0156 0.787545 64.4943 0.783622C64.8534 0.779698 65.5716 0.775775 65.9307 0.775775C66.4095 0.775775 67.7262 0.775775 68.8034 0.771852C69.8807 0.767929 72.5141 0.767929 74.6686 0.764006C76.9429 0.764006 79.0974 0.756159 79.9353 0.752236C81.4914 0.740467 88.7929 0.728697 89.5111 0.732621C89.7505 0.736544 90.2293 0.732621 90.7081 0.728697C91.3066 0.724774 91.7853 0.724774 92.9823 0.732621C94.5384 0.740467 96.9323 0.74439 103.396 0.736544C110.937 0.728697 117.041 0.720851 118.119 0.713005C118.717 0.709082 120.393 0.705158 121.71 0.705158C124.942 0.705158 130.208 0.701235 133.081 0.701235C134.278 0.701235 137.151 0.701235 139.186 0.697312C141.22 0.697312 144.333 0.697312 146.008 0.697312C147.684 0.697312 149.48 0.693389 149.958 0.693389C150.557 0.689466 151.395 0.689466 151.993 0.693389C153.19 0.697312 161.689 0.697312 163.843 0.693389C165.399 0.689466 170.666 0.689466 175.574 0.693389C176.771 0.693389 177.728 0.693389 177.728 0.689466C177.728 0.685543 178.925 0.685543 180.242 0.689466C181.678 0.693389 182.875 0.693389 182.995 0.689466C183.114 0.685543 185.389 0.689466 188.022 0.689466C190.655 0.693389 193.049 0.693389 193.289 0.693389C193.528 0.693389 196.76 0.689466 200.471 0.693389C204.181 0.693389 207.772 0.693389 208.49 0.693389C220.221 0.693389 231.113 0.693389 236.38 0.697312C239.013 0.697312 242.125 0.697312 243.203 0.697312C244.28 0.697312 245.597 0.697312 245.956 0.697312C246.315 0.697312 249.187 0.697312 252.3 0.697312C255.412 0.697312 259.122 0.697312 260.678 0.697312C265.586 0.697312 270.494 0.701235 274.324 0.701235C276.359 0.701235 279.351 0.701235 280.907 0.701235C282.463 0.701235 285.815 0.701235 288.448 0.705158C291.68 0.709082 293.236 0.709082 293.595 0.701235C293.835 0.697312 294.433 0.697312 295.151 0.701235C295.869 0.705158 297.545 0.709082 298.982 0.709082C300.418 0.709082 301.735 0.713005 301.854 0.716928C302.333 0.724774 305.326 0.720851 305.086 0.713005C304.966 0.709082 305.086 0.705158 305.565 0.709082C305.924 0.713005 306.283 0.716928 306.283 0.716928C306.283 0.720851 306.762 0.720851 307.241 0.720851C307.719 0.720851 308.318 0.720851 308.557 0.724774C308.677 0.728697 309.276 0.732621 309.874 0.732621C310.712 0.732621 310.832 0.732621 310.353 0.720851C309.754 0.705158 310.233 0.705158 311.071 0.716928C311.55 0.724774 311.669 0.724774 312.627 0.716928C313.226 0.713005 313.345 0.709082 312.986 0.709082C312.627 0.709082 312.388 0.705158 312.388 0.701235C312.388 0.693389 313.824 0.697312 314.303 0.705158C314.782 0.716928 315.979 0.716928 322.682 0.716928C325.195 0.716928 327.709 0.716928 328.068 0.720851C328.906 0.724774 328.906 0.724774 328.068 0.736544C327.589 0.74439 327.35 0.752236 327.47 0.752236C327.589 0.756159 329.265 0.760083 331.06 0.764006C333.694 0.767929 334.292 0.771852 333.813 0.775775C333.454 0.779698 333.454 0.783622 334.053 0.791468C334.412 0.795391 334.771 0.80716 334.771 0.811084C334.771 0.815007 335.13 0.822853 335.729 0.822853C337.524 0.826776 337.404 0.834623 335.609 0.842469C334.651 0.846392 332.377 0.850315 330.582 0.854238C328.786 0.858162 326.991 0.862085 326.632 0.862085C325.674 0.866008 326.392 0.889547 327.47 0.89347C328.068 0.89347 328.906 0.901316 329.385 0.905239C329.863 0.913086 331.18 0.917009 332.138 0.920932C333.095 0.924855 334.173 0.928778 334.292 0.932701C334.532 0.936625 335.01 0.940548 335.489 0.936625C335.968 0.936625 336.447 0.936625 336.567 0.940548C336.686 0.944471 337.285 0.944471 337.883 0.944471C339.439 0.940548 341.354 0.952317 340.995 0.960164C340.876 0.964087 340.517 0.96801 340.277 0.964087C340.038 0.960164 339.798 0.964087 339.798 0.96801C339.798 0.971933 339.559 0.975856 339.32 0.975856C338.003 0.975856 338.841 0.991549 340.277 0.995472C341.115 0.999395 342.192 1.00332 342.551 1.00724C343.509 1.01901 342.192 1.0347 340.756 1.0347C340.038 1.0347 339.679 1.03078 340.038 1.02686C340.277 1.02293 340.157 1.02293 339.559 1.02686C338.601 1.0347 338.123 1.0347 334.891 1.03863C331.659 1.04255 332.138 1.05432 335.848 1.06609C337.763 1.07394 338.841 1.07786 338.721 1.08178C338.601 1.08963 338.841 1.09355 340.038 1.0857C340.995 1.08178 343.15 1.0857 343.15 1.09355C343.15 1.09747 342.551 1.09747 341.833 1.09355C341.115 1.09355 340.517 1.09355 340.517 1.09355C340.517 1.09747 339.918 1.09747 339.08 1.09747C337.644 1.09747 336.686 1.11709 338.003 1.12101C338.362 1.12101 338.841 1.12494 338.96 1.12886C339.2 1.13671 338.482 1.13671 336.327 1.14063C332.018 1.14455 329.624 1.1524 329.624 1.16024C329.624 1.17201 331.42 1.18771 332.616 1.19163C334.292 1.19555 338.601 1.21909 338.482 1.22694C338.482 1.23086 338.242 1.23478 338.003 1.23478C337.763 1.23478 337.644 1.23871 337.764 1.24655C337.883 1.2544 338.482 1.25832 338.96 1.25832C339.559 1.25832 340.277 1.26225 340.636 1.27009C341.115 1.27794 342.073 1.27794 343.868 1.27794C346.382 1.27794 346.382 1.27794 346.023 1.28971C345.783 1.30148 345.903 1.3054 346.621 1.30932C347.459 1.31325 347.459 1.31325 346.382 1.31717C344.706 1.32109 344.945 1.32894 347.22 1.34071C348.177 1.37209 349.135 1.37994 349.135 1.38386ZM41.1533 0.917009C40.6746 0.917009 40.4352 0.917009 40.3155 0.920932C40.3155 0.924855 40.4352 0.928778 40.7943 0.928778C41.0336 0.928778 41.3927 0.928778 41.6321 0.924855C41.7518 0.920932 41.6321 0.917009 41.1533 0.917009ZM159.534 0.89347C159.534 0.889547 159.295 0.885624 159.055 0.885624C158.816 0.885624 158.577 0.885624 158.577 0.889547C158.577 0.89347 158.816 0.897393 159.055 0.897393C159.295 0.897393 159.534 0.897393 159.534 0.89347ZM218.545 0.736544C218.665 0.740467 219.143 0.740467 219.502 0.736544C219.981 0.736544 219.981 0.732621 219.502 0.728697C218.784 0.728697 218.066 0.732621 218.545 0.736544ZM245.597 0.89347C243.921 0.89347 240.928 0.89347 239.133 0.89347C227.881 0.889547 217.468 0.889547 216.271 0.89347C215.792 0.89347 213.518 0.89347 211.004 0.89347C208.49 0.89347 206.336 0.89347 206.216 0.89347C206.096 0.89347 203.822 0.89347 201.069 0.89347C198.436 0.89347 195.563 0.89347 194.725 0.89347C193.887 0.89347 192.092 0.89347 190.655 0.89347C179.524 0.889547 173.539 0.89347 173.06 0.901316C172.461 0.913086 174.137 0.924855 175.334 0.917009C175.933 0.913086 177.608 0.913086 179.164 0.913086C184.431 0.917009 189.099 0.917009 190.655 0.913086C191.493 0.913086 194.725 0.909163 197.718 0.913086C203.583 0.917009 205.857 0.917009 208.371 0.913086C209.209 0.913086 210.525 0.913086 211.363 0.913086C212.081 0.913086 213.518 0.913086 214.355 0.913086C215.313 0.909163 218.665 0.909163 221.896 0.913086C228.599 0.917009 229.557 0.917009 239.971 0.917009C244.16 0.917009 247.99 0.917009 248.23 0.913086C249.666 0.897393 248.589 0.89347 245.597 0.89347ZM278.753 0.920932C280.189 0.920932 281.625 0.920932 281.985 0.917009C282.344 0.913086 283.181 0.913086 284.019 0.917009C284.738 0.917009 285.456 0.917009 285.575 0.913086C285.935 0.901316 283.421 0.897393 277.197 0.897393C275.401 0.897393 273.725 0.897393 273.486 0.901316C273.247 0.901316 273.127 0.901316 273.127 0.897393C273.127 0.89347 259.362 0.889547 258.763 0.897393C257.925 0.905239 259.003 0.917009 260.798 0.913086C262.833 0.913086 272.768 0.917009 278.753 0.920932ZM283.062 1.22694C281.985 1.22694 280.309 1.23086 279.351 1.23478C278.274 1.23478 277.197 1.23478 276.718 1.23478C276.239 1.23086 276 1.23478 276.119 1.24655C276.239 1.25832 276.598 1.26225 277.915 1.26617C278.872 1.27009 279.591 1.26617 279.591 1.26225C279.591 1.25832 279.351 1.25832 279.112 1.25832C278.872 1.25832 278.633 1.25832 278.633 1.2544C278.633 1.25048 279.112 1.25048 279.83 1.25048C280.428 1.25048 281.985 1.25048 283.062 1.24655C284.259 1.24263 285.575 1.24263 285.935 1.24263C286.294 1.24655 286.772 1.24263 287.012 1.24263C287.371 1.23086 285.097 1.22301 283.062 1.22694ZM290.483 0.842469C290.483 0.842469 290.244 0.838546 290.004 0.838546C289.765 0.838546 289.525 0.842469 289.525 0.842469C289.525 0.846392 289.765 0.846392 290.004 0.846392C290.244 0.846392 290.483 0.842469 290.483 0.842469ZM298.263 0.80716C298.024 0.80716 297.665 0.80716 297.425 0.811084C297.186 0.815007 297.306 0.815007 297.545 0.81893C297.785 0.81893 298.144 0.81893 298.383 0.815007C298.622 0.811084 298.503 0.80716 298.263 0.80716ZM309.036 1.37209C308.797 1.36817 308.438 1.37209 308.318 1.37602C308.079 1.37994 308.318 1.38386 308.677 1.38386C309.515 1.38779 309.754 1.37994 309.036 1.37209ZM314.423 1.14455C314.183 1.14455 313.824 1.14455 313.585 1.14847C313.345 1.1524 313.585 1.1524 314.063 1.1524C314.901 1.1524 315.141 1.14847 314.423 1.14455ZM317.176 0.901316C317.176 0.897393 316.816 0.897393 316.338 0.897393C315.859 0.897393 314.662 0.901316 313.704 0.901316C312.747 0.901316 311.909 0.901316 311.669 0.905239C311.31 0.909162 315.26 0.913086 316.338 0.909163C316.816 0.905239 317.176 0.901316 317.176 0.901316ZM19.0093 1.70949C19.0093 1.69772 18.6502 1.69772 18.2911 1.71341C18.1714 1.72126 18.1714 1.72518 18.4108 1.72126C18.7699 1.72126 19.0093 1.71341 19.0093 1.70949ZM27.7472 1.75264C27.2684 1.75264 26.7897 1.75264 26.67 1.75656C26.4306 1.76049 26.67 1.76441 27.1487 1.76441C27.6275 1.76441 28.1063 1.76441 28.226 1.76049C28.4654 1.75656 28.226 1.75264 27.7472 1.75264ZM37.2033 1.72126C37.2033 1.71733 36.9639 1.71341 36.7245 1.71341C36.4851 1.71341 36.3654 1.71733 36.4851 1.71733C36.6048 1.72126 36.8442 1.72518 36.9639 1.72518C37.0836 1.7291 37.2033 1.72518 37.2033 1.72126ZM37.0836 1.90957C37.0836 1.90564 36.8442 1.90564 36.6048 1.90564C36.3654 1.90564 36.1261 1.90957 36.1261 1.90957C36.1261 1.90957 36.3654 1.91349 36.6048 1.91349C36.8442 1.91741 37.0836 1.91349 37.0836 1.90957ZM42.5897 1.87426C41.6321 1.87034 40.9139 1.87034 41.3927 1.87818C41.5124 1.8821 42.1109 1.88211 42.5897 1.88211C43.5473 1.88211 43.5473 1.87818 42.5897 1.87426ZM45.8215 1.98803C44.7443 1.98803 44.1458 1.99588 45.1034 1.99588C45.5822 1.99588 46.0609 1.99588 46.1806 1.99195C46.3003 1.99195 46.1806 1.98803 45.8215 1.98803ZM258.165 1.73695C258.165 1.73303 257.925 1.7291 257.447 1.7291C256.968 1.7291 256.728 1.7291 256.728 1.7291C256.728 1.7291 257.087 1.73303 257.447 1.73695C257.806 1.74087 258.165 1.74087 258.165 1.73695ZM278.872 1.8311C278.513 1.82718 277.675 1.8311 277.675 1.83895C277.675 1.84287 278.035 1.8468 278.394 1.8468C279.112 1.8468 279.351 1.83895 278.872 1.8311ZM308.318 1.75264C308.318 1.75264 308.079 1.74872 307.839 1.74479C307.6 1.74087 307.36 1.74479 307.36 1.74872C307.36 1.75264 307.6 1.75656 307.839 1.75656C308.079 1.75264 308.318 1.75264 308.318 1.75264ZM308.438 1.7291C308.438 1.7291 308.198 1.72518 307.959 1.72126C307.719 1.71733 307.48 1.72126 307.48 1.72518C307.48 1.7291 307.719 1.73303 307.959 1.73303C308.198 1.7291 308.438 1.7291 308.438 1.7291ZM315.739 1.63887C314.542 1.65456 314.542 1.65456 315.619 1.65064C316.098 1.65064 316.577 1.64279 316.697 1.63887C316.697 1.6271 316.697 1.6271 315.739 1.63887ZM324.238 1.59571C323.16 1.59571 322.921 1.59571 323.28 1.59964C323.639 1.60356 324.118 1.60356 324.716 1.59964C325.674 1.59571 325.554 1.59571 324.238 1.59571ZM341.714 1.31717C341.714 1.31325 341.594 1.31325 341.235 1.31325C340.995 1.31325 340.636 1.31325 340.517 1.31717C340.397 1.32109 340.517 1.32109 340.995 1.32109C341.354 1.32109 341.594 1.32109 341.714 1.31717ZM343.389 1.50156C344.347 1.50548 344.467 1.50156 343.629 1.49764C343.389 1.49371 343.03 1.49371 342.91 1.49764C342.671 1.49371 342.91 1.49764 343.389 1.50156ZM344.467 1.31717C345.424 1.32109 345.544 1.32109 344.706 1.31325C344.467 1.30932 344.107 1.30932 343.988 1.31325C343.748 1.31325 343.988 1.31717 344.467 1.31717ZM343.15 1.34071C343.389 1.34071 343.629 1.33679 343.629 1.33679C343.629 1.33679 343.389 1.33286 343.15 1.33286C342.91 1.33286 342.671 1.33679 342.671 1.33679C342.551 1.34071 342.791 1.34463 343.15 1.34071ZM345.185 1.39171C344.227 1.38386 343.27 1.37994 343.15 1.37994C343.03 1.37994 343.748 1.38779 344.706 1.39563C345.664 1.40348 346.621 1.4074 346.741 1.4074C346.861 1.40348 346.142 1.39956 345.185 1.39171Z" fill="#ED1C1F"/>
<path d="M343.629 1.6792C343.389 1.6792 343.03 1.6792 342.791 1.68312C342.551 1.68705 342.671 1.68705 342.911 1.69097C343.15 1.69097 343.509 1.69097 343.748 1.68705C343.988 1.6792 343.868 1.6792 343.629 1.6792Z" fill="#ED1C1F"/>
<path d="M12.5456 0.188193C13.3835 0.188193 14.3411 0.18427 14.5805 0.180347C14.8199 0.176424 15.4184 0.1725 16.0168 0.1725C16.4956 0.1725 16.9744 0.168577 16.9744 0.164654C16.9744 0.160731 17.6926 0.156808 18.6502 0.152885C19.6078 0.152885 21.5229 0.148962 23.079 0.145038C24.6351 0.141115 26.5502 0.141115 27.5078 0.141115C28.4654 0.141115 29.1836 0.141115 29.1836 0.137192C29.1836 0.133269 29.423 0.133269 29.782 0.133269C30.0214 0.133269 30.1411 0.137192 29.9017 0.141115C29.5427 0.145038 29.6623 0.145038 30.2608 0.141115C30.7396 0.137192 31.8169 0.133269 32.7745 0.133269C34.4502 0.129346 34.4502 0.129346 33.6124 0.121499C32.7745 0.113653 32.8942 0.113653 35.0487 0.117576C37.323 0.125423 38.7593 0.121499 59.3473 0.0979605C61.1428 0.0940374 65.4519 0.0901142 68.8034 0.0861911C72.1549 0.0822679 75.6261 0.0783448 76.464 0.0744216C77.3019 0.0744216 79.4565 0.0704985 81.2519 0.0665753C86.758 0.058729 92.9823 0.0508827 95.9747 0.0508827C97.5308 0.0508827 100.044 0.0469595 101.6 0.0469595C106.747 0.0430364 128.532 0.0312669 131.764 0.0312669C133.56 0.0312669 135.475 0.0312669 136.193 0.0312669C137.749 0.0312669 141.101 0.0273438 147.564 0.0273438C150.317 0.0273438 153.549 0.0273438 154.626 0.0273438C158.217 0.0273438 162.167 0.0273438 175.693 0.0273438C177.249 0.0273438 180.481 0.0273438 182.755 0.0273438C185.149 0.0273438 188.86 0.0273438 191.254 0.0273438C193.528 0.0273438 195.683 0.0273438 196.042 0.0273438C196.401 0.0273438 198.795 0.0273438 201.308 0.0273438C203.822 0.0273438 208.011 0.0273438 210.645 0.0273438C218.904 0.0273438 226.445 0.0273438 229.916 0.0273438C231.712 0.0273438 234.704 0.0273438 236.499 0.0312669C238.295 0.0312669 241.646 0.0312669 243.801 0.0351901C246.075 0.0351901 250.265 0.0351901 253.137 0.0351901C256.13 0.0351901 260.319 0.0351901 262.713 0.0351901C264.987 0.0351901 267.142 0.0351901 267.262 0.0351901C267.381 0.0351901 271.092 0.0351901 275.401 0.0391132C279.71 0.0430364 283.9 0.0430364 284.737 0.0430364C285.575 0.0430364 294.672 0.0508827 304.847 0.0626521C320.647 0.0783448 323.519 0.0861911 323.998 0.0940374C324.238 0.0979605 324.956 0.101884 325.435 0.101884C326.991 0.0979605 328.786 0.10973 328.786 0.121499C328.786 0.129346 328.188 0.129346 323.519 0.121499C320.647 0.117576 317.894 0.10973 317.295 0.10973C316.577 0.10973 316.218 0.10973 316.098 0.121499C315.859 0.137192 315.978 0.137192 319.33 0.141115C327.589 0.152885 335.13 0.168577 337.524 0.180347C338.721 0.18427 337.524 0.192116 335.369 0.196039C334.173 0.196039 332.736 0.196039 332.138 0.199963C331.539 0.199963 330.941 0.199963 330.701 0.199963C330.462 0.199963 330.342 0.203886 330.342 0.207809C330.342 0.211732 329.983 0.215655 329.624 0.215655C329.265 0.215655 328.666 0.215655 328.188 0.215655C322.921 0.223501 315.141 0.223501 314.183 0.215655C313.704 0.211732 313.225 0.211732 312.507 0.215655C311.669 0.219578 311.191 0.219578 310.233 0.211732C309.275 0.203886 309.036 0.203886 308.797 0.207809C308.557 0.211732 308.318 0.211732 308.078 0.207809C307.839 0.203886 307.241 0.199963 306.642 0.199963C305.445 0.196039 305.445 0.196039 305.206 0.180347C305.086 0.164654 304.966 0.164654 302.931 0.168577C302.094 0.168577 301.854 0.168577 302.094 0.164654C302.333 0.160731 302.213 0.160731 301.734 0.160731C301.375 0.160731 299.46 0.160731 297.665 0.160731C295.869 0.160731 294.194 0.160731 293.954 0.160731C293.715 0.164654 291.8 0.160731 289.525 0.160731C287.251 0.156808 282.822 0.156808 279.59 0.152885C276.359 0.152885 271.571 0.148962 268.937 0.148962C266.304 0.148962 262.953 0.148962 261.636 0.148962C260.2 0.148962 257.566 0.148962 255.531 0.148962C245.596 0.145038 240.569 0.145038 240.569 0.152885C240.569 0.156808 241.287 0.160731 242.365 0.160731C243.322 0.160731 244.16 0.164654 244.16 0.168577C244.16 0.1725 243.322 0.1725 242.365 0.168577C241.168 0.164654 240.689 0.164654 240.809 0.168577C240.928 0.1725 240.569 0.176424 239.971 0.1725C239.372 0.1725 238.295 0.1725 237.577 0.1725C236.859 0.1725 233.627 0.1725 230.515 0.168577C227.283 0.168577 224.41 0.164654 223.931 0.168577C223.452 0.168577 222.255 0.1725 221.178 0.1725C220.101 0.1725 216.749 0.1725 213.877 0.1725C211.004 0.1725 207.772 0.1725 206.814 0.1725C201.308 0.168577 194.964 0.168577 191.613 0.1725C189.578 0.1725 186.107 0.1725 183.952 0.1725C177.728 0.168577 170.307 0.168577 168.272 0.1725C167.554 0.1725 164.801 0.1725 162.167 0.1725C157.02 0.168577 155.943 0.168577 152.831 0.1725C151.754 0.1725 149.719 0.1725 148.522 0.1725C147.325 0.1725 145.17 0.1725 143.973 0.176424C142.657 0.176424 140.622 0.180347 139.185 0.176424C137.749 0.176424 135.954 0.176424 135.116 0.176424C134.278 0.176424 131.764 0.176424 129.49 0.180347C119.675 0.18427 103.037 0.199963 91.0671 0.215655C83.0474 0.223501 77.7807 0.231348 75.0277 0.231348C72.7534 0.231348 67.4867 0.239194 59.467 0.254887C57.1927 0.25881 53.8412 0.262733 52.0458 0.266656C50.2503 0.266656 45.5821 0.274502 41.5124 0.282349C37.5624 0.290195 33.4927 0.294118 32.5351 0.294118C31.5775 0.294118 29.9017 0.298041 28.5851 0.301965C25.9517 0.309811 25.9517 0.309811 25.9517 0.301965C25.9517 0.298041 27.2684 0.290195 29.0639 0.282349C30.979 0.278426 32.2957 0.270579 32.2957 0.266656C32.2957 0.262733 27.6275 0.250964 26.7896 0.250964C25.7123 0.254887 24.3957 0.243117 25.1139 0.235271C25.832 0.227425 33.373 0.231348 33.6124 0.239194C33.7321 0.243117 34.4502 0.243117 35.0487 0.243117C38.52 0.239194 38.9987 0.239194 38.9987 0.227425C38.9987 0.219578 39.8366 0.215655 42.3503 0.207809C44.1457 0.203886 46.0609 0.199963 46.42 0.199963C46.7791 0.199963 47.3776 0.196039 47.4973 0.196039C47.7367 0.192116 48.5745 0.196039 49.4124 0.196039C50.4897 0.199963 51.567 0.199963 52.6442 0.192116C53.7215 0.188193 55.3973 0.188193 56.714 0.188193C57.9109 0.188193 59.1079 0.188193 59.3473 0.18427C59.5867 0.18427 60.5443 0.180347 61.5019 0.18427C62.4594 0.18427 64.4943 0.180347 66.0504 0.176424C67.4867 0.168577 69.6413 0.164654 70.5989 0.164654C71.6761 0.164654 74.7883 0.160731 77.661 0.156808C80.414 0.152885 86.758 0.145038 91.6656 0.141115C96.5732 0.137192 102.199 0.129346 104.114 0.129346C111.057 0.121499 114.767 0.117576 117.161 0.121499C118.238 0.121499 119.076 0.121499 119.076 0.117576C119.076 0.113653 121.231 0.113653 123.744 0.10973C132.004 0.105807 136.432 0.105807 139.305 0.101884C140.861 0.101884 144.332 0.101884 146.966 0.101884C149.599 0.101884 151.873 0.101884 151.993 0.101884C152.232 0.101884 157.14 0.101884 161.329 0.101884C162.407 0.101884 165.519 0.101884 168.152 0.101884C177.01 0.101884 183.593 0.101884 184.431 0.101884C184.91 0.101884 188.62 0.101884 192.81 0.101884C196.999 0.101884 203.343 0.101884 206.934 0.101884C210.525 0.101884 213.637 0.101884 213.757 0.101884C213.877 0.101884 216.63 0.101884 219.861 0.101884C223.093 0.101884 225.846 0.101884 225.966 0.101884C226.445 0.0979605 240.33 0.101884 248.948 0.105807C254.693 0.10973 257.925 0.10973 261.875 0.10973C264.628 0.10973 269.057 0.10973 274.563 0.113653C282.224 0.113653 296.947 0.121499 302.333 0.129346C305.685 0.133269 308.557 0.133269 308.797 0.133269C309.036 0.133269 308.797 0.129346 308.318 0.129346C307.839 0.129346 307.241 0.125423 307.001 0.125423C306.762 0.125423 305.445 0.121499 304.248 0.121499C302.572 0.117576 302.094 0.117576 302.333 0.10973C302.572 0.105807 302.333 0.105807 301.854 0.10973C301.136 0.117576 300.538 0.117576 298.981 0.10973C297.904 0.105807 296.947 0.105807 296.827 0.105807C296.588 0.10973 293.356 0.105807 281.147 0.0979605C277.795 0.0940374 273.965 0.0940374 272.528 0.0940374C267.621 0.0940374 260.559 0.0901142 260.559 0.0822679C260.559 0.0783448 259.601 0.0783448 258.404 0.0744216C257.087 0.0744216 256.249 0.0744216 256.369 0.0783448C256.489 0.0901142 252.299 0.0901142 240.449 0.0822679C237.696 0.0822679 234.105 0.0783448 232.549 0.0783448C230.515 0.0783448 229.437 0.0744216 229.078 0.0704985C228.24 0.058729 225.128 0.058729 225.128 0.0704985C225.128 0.0744216 224.171 0.0783448 222.495 0.0783448C221.058 0.0783448 218.904 0.0783448 217.827 0.0783448C216.749 0.0783448 213.637 0.0783448 211.004 0.0783448C208.371 0.0783448 205.617 0.0783448 204.899 0.0783448C203.104 0.0822679 201.787 0.0822679 195.443 0.0783448C192.331 0.0783448 189.458 0.0744216 189.099 0.0783448C187.902 0.0822679 174.376 0.0822679 166.596 0.0783448C164.322 0.0783448 162.048 0.0783448 161.449 0.0783448C160.851 0.0783448 158.936 0.0783448 157.379 0.0783448C155.823 0.0783448 152.951 0.0783448 151.155 0.0783448C149.36 0.0783448 146.607 0.0783448 145.051 0.0783448C142.417 0.0783448 139.066 0.0783448 130.567 0.0822679C122.069 0.0861911 102.558 0.105807 96.4535 0.113653C94.5383 0.117576 91.7853 0.121499 90.3489 0.121499C88.9126 0.121499 86.758 0.125423 85.561 0.129346C84.2444 0.129346 82.0898 0.133269 80.7731 0.133269C76.5837 0.137192 58.1503 0.160731 53.4821 0.168577C51.0882 0.1725 48.5745 0.176424 47.8564 0.176424C47.1382 0.176424 45.8215 0.180347 44.9836 0.18427C44.1457 0.188193 42.1109 0.192116 40.5548 0.192116C38.1609 0.192116 34.0912 0.199963 31.8169 0.203886C31.0987 0.203886 28.1063 0.18427 28.1063 0.180347C28.1063 0.1725 26.0714 0.1725 23.9169 0.18427C22.7199 0.188193 21.4032 0.188193 20.9244 0.188193C20.4457 0.18427 19.2487 0.188193 18.4108 0.192116C17.3335 0.199963 16.2562 0.199963 15.5381 0.196039C14.7002 0.192116 14.3411 0.192116 14.3411 0.199963C14.3411 0.203886 13.6229 0.207809 12.5456 0.207809C10.2714 0.207809 10.3911 0.196039 12.5456 0.188193ZM89.3913 0.199963C89.3913 0.199963 89.152 0.196039 88.9126 0.192116C88.6732 0.188193 88.4338 0.192116 88.4338 0.196039C88.4338 0.199963 88.6732 0.203886 88.9126 0.203886C89.152 0.203886 89.3913 0.203886 89.3913 0.199963ZM173.299 0.105807C173.06 0.105807 172.701 0.105807 172.461 0.10973C172.222 0.113653 172.342 0.113653 172.581 0.117576C172.82 0.117576 173.18 0.117576 173.419 0.113653C173.658 0.105807 173.658 0.105807 173.299 0.105807ZM312.627 0.129346C312.627 0.133269 313.225 0.133269 313.824 0.137192C314.542 0.137192 315.021 0.137192 315.021 0.137192C315.021 0.137192 314.901 0.133269 314.662 0.133269C314.303 0.129346 312.627 0.125423 312.627 0.129346ZM106.867 0.0626521C107.226 0.0665753 107.585 0.0704985 107.705 0.0704985C107.825 0.0704985 107.585 0.0665753 107.107 0.0626521C106.508 0.058729 106.388 0.058729 106.867 0.0626521ZM66.7685 0.113653C66.7685 0.117576 67.0079 0.121499 67.2473 0.121499C67.4867 0.121499 67.7261 0.121499 67.7261 0.117576C67.7261 0.117576 67.4867 0.113653 67.2473 0.10973C67.0079 0.105807 66.7685 0.10973 66.7685 0.113653ZM65.5716 0.137192C65.9307 0.141115 66.2897 0.145038 66.5291 0.141115C66.6488 0.141115 66.4094 0.137192 65.9307 0.133269C65.2125 0.129346 65.0928 0.129346 65.5716 0.137192Z" fill="#ED1C1F"/>
<path d="M330.702 0.635835C330.342 0.631912 329.385 0.627989 328.547 0.627989C327.829 0.627989 326.991 0.624066 326.871 0.620143C326.392 0.612296 324.118 0.612296 324.118 0.620143C324.118 0.631912 326.512 0.639758 329.385 0.639758C330.821 0.643681 331.3 0.639758 330.702 0.635835Z" fill="#ED1C1F"/>
<path d="M317.894 0.624037C318.133 0.624037 319.45 0.62796 320.886 0.62796H323.4L321.844 0.620114C320.049 0.608344 312.747 0.600498 312.867 0.612267C312.986 0.616191 313.944 0.620114 315.141 0.620114C316.458 0.620114 317.655 0.624037 317.894 0.624037Z" fill="#ED1C1F"/>
<path d="M310.592 0.658203C309.635 0.658203 309.635 0.666049 310.832 0.697435L311.789 0.720974L311.55 0.697435C311.31 0.677819 311.43 0.673896 312.388 0.673896H313.465L312.507 0.666049C311.789 0.662126 311.071 0.658203 310.592 0.658203Z" fill="#ED1C1F"/>
<path d="M307.839 0.670932C307.839 0.667009 307.6 0.663086 307.361 0.663086C307.121 0.663086 307.002 0.667009 307.121 0.667009C307.241 0.670932 307.48 0.674855 307.6 0.674855C307.72 0.678779 307.839 0.674855 307.839 0.670932Z" fill="#ED1C1F"/>
<path d="M298.383 0.599785C298.383 0.603708 298.982 0.607632 299.58 0.611555C301.017 0.623324 301.136 0.619401 300.059 0.607632C299.341 0.595862 298.383 0.591939 298.383 0.599785Z" fill="#ED1C1F"/>
<path d="M296.109 0.494578C295.75 0.494578 295.87 0.498501 296.348 0.498501C296.827 0.498501 297.186 0.502425 297.186 0.506348C297.186 0.510271 297.426 0.514194 297.785 0.514194C298.144 0.514194 298.862 0.52204 299.461 0.53381C300.538 0.549502 300.897 0.553426 300.059 0.53381C299.82 0.529887 299.7 0.52204 299.82 0.52204C300.179 0.514194 296.827 0.490655 296.109 0.494578Z" fill="#ED1C1F"/>
<path d="M296.228 0.615831C297.425 0.6276 298.144 0.6276 297.186 0.615831C296.827 0.611908 296.348 0.607984 295.869 0.607984C295.391 0.604061 295.51 0.607984 296.228 0.615831Z" fill="#ED1C1F"/>
<path d="M276 0.521501C276.359 0.521501 276 0.517578 275.401 0.517578C274.683 0.517578 274.443 0.517578 274.803 0.521501C275.042 0.521501 275.64 0.521501 276 0.521501Z" fill="#ED1C1F"/>
<path d="M270.494 0.5181C271.451 0.510254 271.451 0.510254 269.775 0.510254C268.818 0.510254 267.74 0.510254 267.381 0.510254C267.022 0.510254 266.783 0.510254 266.903 0.514177C267.381 0.52987 269.297 0.52987 270.494 0.5181Z" fill="#ED1C1F"/>
<path d="M265.107 0.513196C264.868 0.509273 264.509 0.509273 264.389 0.513196C264.269 0.513196 264.509 0.517119 264.868 0.521043C265.826 0.521043 265.945 0.521043 265.107 0.513196Z" fill="#ED1C1F"/>
<path d="M260.2 0.50565C259.96 0.501727 259.721 0.50565 259.721 0.50565C259.721 0.509573 259.242 0.513496 258.763 0.513496C258.165 0.513496 258.404 0.517419 259.242 0.517419C260.559 0.521342 261.157 0.513496 260.2 0.50565Z" fill="#ED1C1F"/>
<path d="M254.095 0.513951C253.855 0.510028 253.257 0.513951 252.658 0.513951C251.821 0.517874 251.94 0.517874 253.137 0.521797C254.574 0.521797 254.933 0.521797 254.095 0.513951Z" fill="#ED1C1F"/>
<path d="M243.322 0.514177C243.442 0.514177 243.202 0.510254 242.724 0.510254C242.125 0.510254 242.005 0.510254 242.365 0.514177C242.604 0.514177 243.083 0.514177 243.322 0.514177Z" fill="#ED1C1F"/>
<path d="M230.754 0.513378C232.071 0.513378 232.669 0.509454 232.19 0.505531C231.472 0.501608 227.881 0.505531 228.24 0.509454C228.48 0.513378 229.557 0.513378 230.754 0.513378Z" fill="#ED1C1F"/>
<path d="M227.403 0.0820482C227.523 0.0820482 227.283 0.078125 226.804 0.078125C226.206 0.078125 226.086 0.078125 226.445 0.0820482C226.804 0.0820482 227.283 0.0820482 227.403 0.0820482Z" fill="#ED1C1F"/>
<path d="M223.213 0.514177C223.572 0.514177 223.094 0.510254 222.375 0.510254C221.538 0.510254 221.298 0.510254 221.777 0.514177C222.256 0.514177 222.974 0.514177 223.213 0.514177Z" fill="#ED1C1F"/>
<path d="M193.289 0.509311C193.289 0.505388 193.049 0.501465 192.81 0.501465C192.571 0.501465 192.331 0.501465 192.331 0.505388C192.331 0.509311 192.571 0.513234 192.81 0.513234C193.049 0.517157 193.169 0.513234 193.289 0.509311Z" fill="#ED1C1F"/>
<path d="M189.458 0.513706C189.698 0.509783 189.458 0.505859 188.979 0.505859C188.501 0.505859 188.142 0.505859 188.142 0.509783C188.142 0.513706 188.381 0.517629 188.62 0.517629C188.86 0.517629 189.219 0.517629 189.458 0.513706Z" fill="#ED1C1F"/>
<path d="M183.474 0.509783C183.593 0.509783 183.354 0.505859 182.875 0.505859C182.277 0.505859 182.157 0.505859 182.516 0.509783C182.875 0.509783 183.354 0.509783 183.474 0.509783Z" fill="#ED1C1F"/>
<path d="M173.898 0.509783C174.018 0.509783 173.778 0.505859 173.18 0.505859C172.581 0.505859 172.462 0.505859 172.821 0.509783C173.299 0.513706 173.659 0.513706 173.898 0.509783Z" fill="#ED1C1F"/>
<path d="M166.476 0.482456C167.195 0.478533 167.075 0.478533 166.237 0.474609C165.878 0.474609 165.638 0.474609 165.758 0.478533C165.878 0.482456 166.237 0.486379 166.476 0.482456Z" fill="#ED1C1F"/>
<path d="M152.951 0.584676C152.951 0.580753 153.31 0.57683 153.908 0.572906C154.746 0.56506 154.746 0.56506 153.669 0.568983C152.591 0.568983 151.514 0.592522 152.472 0.592522C152.711 0.588599 152.951 0.588599 152.951 0.584676Z" fill="#ED1C1F"/>
<path d="M151.155 0.569353C151.514 0.569353 151.395 0.56543 150.916 0.56543C149.839 0.56543 149.719 0.569353 150.557 0.581122C151.035 0.588969 151.035 0.588969 150.796 0.581122C150.676 0.573276 150.796 0.569353 151.155 0.569353Z" fill="#ED1C1F"/>
<path d="M148.522 0.593386C149.121 0.593386 149.48 0.589463 149.48 0.577694C149.48 0.565924 149.36 0.562001 148.761 0.565924C148.402 0.565924 147.924 0.573771 147.684 0.577694C147.564 0.581617 146.966 0.58554 146.367 0.58554C145.769 0.58554 145.17 0.58554 145.051 0.589463C144.931 0.593386 145.41 0.593386 146.128 0.593386C146.966 0.593386 148.043 0.593386 148.522 0.593386Z" fill="#ED1C1F"/>
<path d="M137.869 0.517595C137.988 0.517595 137.749 0.513672 137.27 0.513672C136.672 0.513672 136.552 0.513672 136.911 0.517595C137.151 0.517595 137.629 0.517595 137.869 0.517595Z" fill="#ED1C1F"/>
<path d="M129.131 0.577199C128.413 0.577199 127.695 0.577199 127.336 0.585045C126.977 0.592892 126.139 0.596815 125.181 0.596815C124.343 0.596815 122.907 0.596815 122.069 0.600738C120.633 0.604661 120.633 0.604661 121.83 0.604661C122.548 0.604661 125.062 0.604661 127.456 0.600738C129.85 0.596815 132.722 0.596815 133.8 0.592892C135.356 0.592892 135.595 0.588969 134.877 0.585045C134.398 0.581122 134.159 0.577199 134.278 0.573276C134.518 0.56543 134.159 0.56543 132.722 0.56543C131.765 0.56543 130.687 0.569353 130.568 0.569353C130.568 0.577199 129.85 0.581122 129.131 0.577199Z" fill="#ED1C1F"/>
<path d="M132.363 0.5181C132.363 0.514177 132.124 0.510254 131.884 0.510254C131.645 0.510254 131.286 0.510254 131.047 0.514177C130.807 0.5181 131.047 0.522023 131.525 0.522023C132.004 0.525947 132.363 0.522023 132.363 0.5181Z" fill="#ED1C1F"/>
<path d="M123.984 0.491228C124.463 0.495151 125.181 0.495151 125.54 0.491228C125.899 0.491228 125.421 0.487305 124.702 0.487305C123.865 0.487305 123.505 0.487305 123.984 0.491228Z" fill="#ED1C1F"/>
<path d="M119.436 0.612322C120.513 0.608398 120.513 0.608398 119.675 0.608398C119.077 0.608398 117.76 0.608398 116.683 0.608398L114.648 0.612322L116.443 0.616245C117.281 0.612322 118.717 0.612322 119.436 0.612322Z" fill="#ED1C1F"/>
<path d="M111.895 0.617204C112.254 0.617204 111.775 0.613281 111.057 0.613281C110.219 0.613281 109.98 0.613281 110.459 0.617204C110.937 0.621128 111.536 0.621128 111.895 0.617204Z" fill="#ED1C1F"/>
<path d="M106.747 0.619153C106.747 0.61523 106.149 0.61523 105.431 0.619153C104.713 0.623076 104.234 0.627 104.354 0.627C104.713 0.630923 106.747 0.623076 106.747 0.619153Z" fill="#ED1C1F"/>
<path d="M102.199 0.630876C102.558 0.630876 102.079 0.626953 101.361 0.626953C100.523 0.626953 100.284 0.626953 100.763 0.630876C101.242 0.630876 101.84 0.630876 102.199 0.630876Z" fill="#ED1C1F"/>
<path d="M65.2128 0.537143C65.4522 0.53322 65.3325 0.53322 65.0931 0.529297C64.8537 0.529297 64.3749 0.529297 63.8961 0.53322C63.2976 0.537143 63.2976 0.537143 64.0158 0.541066C64.4946 0.541066 64.9734 0.541066 65.2128 0.537143Z" fill="#ED1C1F"/>
<path d="M35.0488 0.361353C35.0488 0.365277 35.6473 0.3692 36.2458 0.3692C37.5625 0.3692 37.6822 0.3692 37.2034 0.361353C36.7246 0.353507 35.1685 0.353507 35.0488 0.361353Z" fill="#ED1C1F"/>
<path d="M34.8097 0.340837C35.1688 0.340837 34.9294 0.336914 34.2112 0.336914C33.493 0.336914 33.2536 0.336914 33.6127 0.340837C33.8521 0.340837 34.4506 0.340837 34.8097 0.340837Z" fill="#ED1C1F"/>
<path d="M33.2536 0.379673C33.0142 0.383596 33.2536 0.38752 33.7324 0.38752C34.69 0.38752 34.8097 0.383596 34.0915 0.379673C33.7324 0.37575 33.3733 0.379673 33.2536 0.379673Z" fill="#ED1C1F"/>
<path d="M33.1337 0.651031C33.1337 0.643185 33.014 0.643185 32.7746 0.647108C32.6549 0.651031 32.6549 0.654955 32.7746 0.658878C33.014 0.658878 33.1337 0.654955 33.1337 0.651031Z" fill="#ED1C1F"/>
<path d="M24.3956 0.373216C24.8744 0.373216 25.832 0.36537 26.6699 0.361446C27.5077 0.357523 29.0638 0.3536 30.1411 0.349677C31.2184 0.345754 32.0562 0.341831 32.0562 0.337908C32.0562 0.333984 31.6972 0.333984 31.2184 0.333984C30.7396 0.333984 29.6623 0.337908 28.8244 0.341831C27.9865 0.345754 26.7896 0.345754 26.3108 0.349677C25.7123 0.3536 24.1562 0.357523 22.9592 0.361446C20.2062 0.369293 18.291 0.384985 18.6501 0.396755C18.8895 0.404601 18.4107 0.408524 17.4532 0.412447C16.2562 0.416371 15.8971 0.416371 15.4183 0.404601C14.8198 0.392832 14.5804 0.396755 14.7001 0.416371C14.7001 0.424217 14.4607 0.424217 13.9819 0.424217C12.6653 0.416371 12.785 0.447756 14.1016 0.459525C15.6577 0.475218 16.4956 0.475218 17.0941 0.455602C17.4532 0.447756 17.8123 0.43991 18.0516 0.43991C18.7698 0.447756 21.1638 0.435986 21.5229 0.424217C21.7623 0.416371 22.6001 0.412447 24.3956 0.408524C30.8593 0.396755 32.0562 0.392832 30.979 0.388909C30.3805 0.388909 29.4229 0.388909 28.9441 0.392832C28.4653 0.396755 27.029 0.396755 25.5926 0.396755C23.5577 0.396755 23.1986 0.396755 23.3183 0.388909C23.5577 0.381062 23.9168 0.373216 24.3956 0.373216Z" fill="#ED1C1F"/>
<path d="M16.4955 0.338759C16.7349 0.342682 17.8122 0.338759 19.0092 0.334836C20.2062 0.330913 21.8819 0.323067 22.7198 0.323067C23.5577 0.319143 24.635 0.31522 24.9941 0.31522C25.3531 0.31522 24.9941 0.311297 24.2759 0.31522C23.438 0.31522 21.6425 0.319143 20.3259 0.319143C18.0516 0.31522 15.8971 0.330913 16.4955 0.338759Z" fill="#ED1C1F"/>
<path d="M20.6852 0.21875C19.4882 0.21875 15.1791 0.234443 15.4185 0.242289C16.017 0.254058 18.1716 0.257982 19.7276 0.250135C21.2837 0.242289 22.0019 0.21875 20.6852 0.21875Z" fill="#ED1C1F"/>
<path d="M15.179 0.110193C15.4184 0.114116 15.6578 0.110193 15.6578 0.110193C15.6578 0.10627 15.4184 0.102346 15.179 0.0984233C14.9396 0.0945002 14.7002 0.0984233 14.7002 0.0984233C14.7002 0.102346 14.8199 0.10627 15.179 0.110193Z" fill="#ED1C1F"/>
<path d="M10.0323 0.266215C10.7505 0.270138 11.1096 0.270138 11.1096 0.266215C11.1096 0.262292 11.5884 0.262292 12.1868 0.262292C12.905 0.266215 13.3838 0.262292 13.7429 0.254445C14.102 0.246599 13.9823 0.242676 13.5035 0.242676C13.1444 0.242676 12.6656 0.242676 12.4262 0.246599C12.3065 0.250522 11.4687 0.250522 10.6308 0.246599C9.4338 0.242676 9.1944 0.242676 9.07471 0.250522C9.07471 0.254445 9.5535 0.262292 10.0323 0.266215Z" fill="#ED1C1F"/>
<path d="M11.3485 0.885985C11.947 0.874216 11.947 0.874216 11.3485 0.86637C10.3909 0.8546 9.79246 0.862447 9.43337 0.882062C9.19397 0.897755 10.2712 0.901678 11.3485 0.885985Z" fill="#ED1C1F"/>
<path d="M10.8697 0.415671C11.7076 0.415671 12.5455 0.407825 12.5455 0.396055C12.5455 0.396055 11.947 0.392132 11.3485 0.388209C10.1516 0.380363 8.1167 0.380363 8.1167 0.388209C8.1167 0.396055 9.91216 0.415671 10.8697 0.415671Z" fill="#ED1C1F"/>
<path d="M10.0321 0.479038C9.31394 0.486884 8.71545 0.490807 8.83515 0.490807C10.6306 0.49473 11.1094 0.498653 11.7079 0.490807C12.5458 0.482961 12.5458 0.479038 11.9473 0.471191C11.5882 0.471191 10.7503 0.475115 10.0321 0.479038Z" fill="#ED1C1F"/>
<path d="M5.72289 0.91509C5.48349 0.922936 5.60319 0.926859 6.80016 0.926859C8.35623 0.926859 10.1517 0.919013 9.6729 0.911167C9.43351 0.907243 8.59562 0.907243 7.63805 0.90332C6.44107 0.90332 5.96228 0.907243 5.72289 0.91509Z" fill="#ED1C1F"/>
<path d="M8.71545 1.00749C8.95485 0.999643 9.07455 0.991797 8.95485 0.991797C8.23666 0.98395 5.48362 0.98395 4.76544 0.99572C3.92756 1.01141 4.16695 1.01141 6.4412 1.01534C7.75788 1.01926 8.23667 1.01534 8.71545 1.00749Z" fill="#ED1C1F"/>
<path d="M6.80046 1.48698C6.32167 1.48698 6.08228 1.4909 6.08228 1.4909C6.08228 1.4909 6.44137 1.49482 6.80046 1.49482C7.27925 1.49482 7.51864 1.49482 7.51864 1.4909C7.63834 1.48698 7.27925 1.48305 6.80046 1.48698Z" fill="#ED1C1F"/>
<path d="M8.83544 0.79935C8.83544 0.795427 8.23695 0.795427 7.63847 0.791504C6.92028 0.791504 6.56119 0.791504 6.68089 0.795427C6.92028 0.79935 8.83544 0.803273 8.83544 0.79935Z" fill="#ED1C1F"/>
<path d="M7.39884 0.356564C7.99733 0.356564 7.75793 0.344794 6.80035 0.336948C6.20187 0.329102 5.84277 0.329102 5.84277 0.329102C5.84277 0.336948 6.92005 0.356564 7.39884 0.356564Z" fill="#ED1C1F"/>
<path d="M5.48399 0.894616C6.20218 0.894616 6.08248 0.878923 5.3643 0.875C5.0052 0.875 4.04762 0.878923 3.20974 0.882846C2.13246 0.886769 2.01277 0.890693 2.61125 0.890693C3.68853 0.894616 4.76581 0.894616 5.48399 0.894616Z" fill="#ED1C1F"/>
<path d="M1.41393 0.698259C0.935136 0.694336 0.336649 0.694336 0.216951 0.694336C-0.381535 0.698259 0.336649 0.706105 1.41393 0.702182C2.25181 0.702182 2.25181 0.702182 1.41393 0.698259Z" fill="#ED1C1F"/>
<path d="M83.7655 0.517578C83.167 0.517578 82.6882 0.517578 82.6882 0.521501C82.6882 0.525424 83.167 0.525424 83.6458 0.525424C84.2443 0.525424 84.7231 0.521501 84.7231 0.521501C84.7231 0.517578 84.364 0.517578 83.7655 0.517578Z" fill="#ED1C1F"/>
<path d="M81.2518 0.506903C80.6533 0.506903 79.9351 0.510826 79.576 0.514749C78.8578 0.522595 79.2169 0.522595 80.8927 0.518672C82.4488 0.510826 82.6882 0.50298 81.2518 0.506903Z" fill="#ED1C1F"/>
</svg>
